Coordinates
version=1
nRows=8
nColumns=40
inDegrees=yes

Units are S.I. units (second, meters, Newtons, ...)
Angles are in degrees.

endheader
time	pelvis_tilt	pelvis_list	pelvis_rotation	pelvis_tx	pelvis_ty	pelvis_tz	hip_flexion_r	hip_adduction_r	hip_rotation_r	knee_angle_r	knee_angle_r_beta	ankle_angle_r	subtalar_angle_r	mtp_angle_r	hip_flexion_l	hip_adduction_l	hip_rotation_l	knee_angle_l	knee_angle_l_beta	ankle_angle_l	subtalar_angle_l	mtp_angle_l	lumbar_extension	lumbar_bending	lumbar_rotation	arm_flex_r	arm_add_r	arm_rot_r	elbow_flex_r	pro_sup_r	wrist_flex_r	wrist_dev_r	arm_flex_l	arm_add_l	arm_rot_l	elbow_flex_l	pro_sup_l	wrist_flex_l	wrist_dev_l
      1.73000000	      0.70309416	     -2.52327601	     -4.19781259	      0.07208805	      0.87967124	      1.02623167	     -9.39743100	      2.34912773	    -15.78278705	    -25.34450538	     -0.44234507	     10.26054449	      6.09515903	     -5.91961881	     21.73086724	      2.27331895	     13.09892613	    -15.54989067	     -0.27139679	     -6.09118589	      3.70581877	     -9.67361521	     -8.07680069	      2.72699034	      7.26841158	     14.28953440	    -10.23379300	     16.51745678	     22.53676711	     89.95437384	      0.00000000	      0.00000000	     -1.89771838	      6.98013014	    -11.29256371	     18.56462653	     89.95437384	      0.00000000	      0.00000000
      1.74000000	      0.62548804	     -2.10751713	     -4.40586226	      0.08104735	      0.88026166	      1.02574881	     -9.24873808	      1.64266200	    -15.48466895	    -26.37243569	     -0.46028583	      9.37569398	      5.54722530	     -5.70892845	     21.55758865	      1.84320182	     13.14422510	    -16.17131624	     -0.28224271	     -5.56396688	      3.60970588	     -9.60510057	     -7.85146806	      2.22195235	      7.11076440	     14.08964428	     -9.85976950	     16.59867600	     21.89697535	     89.95437384	      0.00000000	      0.00000000	     -1.88253870	      6.95207359	    -11.46776401	     18.31787502	     89.95437384	      0.00000000	      0.00000000
      1.75000000	      0.58430944	     -1.62587049	     -4.57271949	      0.09005582	      0.88115115	      1.02513461	     -9.00551111	      0.84095713	    -15.16677821	    -27.60692462	     -0.48183173	      8.22953912	      4.97715419	     -5.44004919	     21.35999153	      1.33324201	     13.14763721	    -16.91847957	     -0.29528317	     -4.93316887	      3.45330609	     -9.47146116	     -7.64991483	      1.64746716	      6.89840254	     13.82096943	     -9.50918029	     16.63727609	     21.34623175	     89.95437384	      0.00000000	      0.00000000	     -1.86083222	      6.95474505	    -11.70119753	     18.10603098	     89.95437384	      0.00000000	      0.00000000
      1.76000000	      0.58085615	     -1.25623795	     -4.61383664	      0.09899028	      0.88230482	      1.02436996	     -8.66197472	      0.18979221	    -14.77535382	    -29.02646373	     -0.50660736	      6.91636036	      4.48232401	     -5.15876842	     21.02250932	      0.89078892	     13.12932491	    -17.47883201	     -0.30506317	     -4.33556731	      3.37943252	     -9.27310449	     -7.51185013	      1.21024098	      6.52333903	     13.54291675	     -9.17484746	     16.64102786	     20.90242807	     89.95437384	      0.00000000	      0.00000000	     -1.84931857	      6.98427094	    -11.96182763	     18.01004277	     89.95437384	      0.00000000	      0.00000000
      1.77000000	      0.52660110	     -0.58395692	     -4.82358950	      0.10827909	      0.88353167	      1.02362089	     -8.00831182	     -0.98926040	    -14.66463542	    -30.83959109	     -0.53825240	      5.04640673	      3.83546038	     -4.73065048	     20.46832097	      0.10995538	     13.29667251	    -17.54334601	     -0.30618915	     -3.55633151	      3.75653744	     -8.90633449	     -7.20369227	      0.44100290	      6.39351348	     13.16486962	     -8.83320867	     16.61714518	     20.24349991	     89.95437384	      0.00000000	      0.00000000	     -1.83032637	      7.08459324	    -12.59317742	     17.88157854	     89.95437384	      0.00000000	      0.00000000
      1.78000000	      0.54646368	     -0.29269551	     -4.87050720	      0.11713983	      0.88502287	      1.02281621	     -7.37466146	     -1.68165744	    -14.40740654	    -32.66415783	     -0.57009710	      3.17589426	      3.48842365	     -4.38331682	     19.83408891	     -0.31860391	     13.12730905	    -17.61480905	     -0.30743641	     -2.93191319	      3.74994608	     -8.64234338	     -7.07886826	      0.11228214	      6.06831891	     12.89363654	     -8.54653951	     16.65645816	     19.66603566	     89.95437384	      0.00000000	      0.00000000	     -1.67141470	      7.09550044	    -13.04361244	     17.60905307	     89.95437384	      0.00000000	      0.00000000
      1.79000000	      0.40704483	      0.38757085	     -4.92918306	      0.12582043	      0.88625489	      1.02150708	     -6.23817037	     -2.95926015	    -14.34171976	    -34.94497861	     -0.60990493	      0.88382466	      3.14640053	     -3.75642192	     19.19301473	     -1.28990927	     13.00117301	    -17.16765271	     -0.29963206	     -2.62032683	      4.46854976	     -7.87173845	     -6.75213267	     -0.59426480	      5.81941269	     12.46881034	     -8.36024592	     16.59182534	     19.30922717	     89.95437384	      0.00000000	      0.00000000	     -1.51565650	      7.21021958	    -13.58524786	     17.60854260	     89.95437384	      0.00000000	      0.00000000
      1.80000000	      0.33440701	      0.55227301	     -4.91970156	      0.13450929	      0.88746382	      1.02048048	     -5.29302884	     -3.52248394	    -13.93409984	    -36.89022239	     -0.64385584	     -1.61563574	      2.80979711	     -3.29047393	     18.60955367	     -1.59360058	     13.04096352	    -17.09783421	     -0.29841350	     -1.99351587	      4.23985762	     -7.58924527	     -6.53367346	     -0.73955347	      5.33946716	     12.16731846	     -8.17416085	     16.79725696	     18.89236046	     89.95437384	      0.00000000	      0.00000000	     -1.42355020	      7.21236220	    -14.07407816	     17.40639227	     89.95437384	      0.00000000	      0.00000000
